# xmcd
#
# Track frame offsets: 
#        150
#        19622
#        40252
#        66475
#        81447
#        102895
#        127782
#        152550
#        174110
#        196050
#
# Disc length: 3036 seconds
#
# Revision: 0
# Processed by: cddbd v1.5.2PL0 Copyright (c) Steve Scherf et al.
# Submitted via: ExactAudioCopy v1.0b3
#
DISCID=720bda0a
DTITLE=Son Tuyen, Che Linh - Tinh Ca Tren Lua
DYEAR=1991
DGENRE=
TTITLE0=Son Tuyen - Tinh ca tren lua
TTITLE1=Che Linh - Truc dao
TTITLE2=Tieng hat Muong Luong
TTITLE3=Son Tuyen - Gui nguoi ngan dam
TTITLE4=Che Linh - Trom nhin nhau
TTITLE5=Son Tuyen - Ruoc tinh ve voi que huong
TTITLE6=Che Linh - Hoa trinh nu
TTITLE7=Son Tuyen - Ly qua deo
TTITLE8=Che Linh - Cho nguoi tinh nho
TTITLE9=Son Tuyen - Huyen su ca nguoi mang ten Quoc
EXTD=
EXTT0=
EXTT1=
EXTT2=
EXTT3=
EXTT4=
EXTT5=
EXTT6=
EXTT7=
EXTT8=
EXTT9=
PLAYORDER=
